REM DIRINDEX 1\2,1\3,1\4,1\5
REM DIRNAME cjc004,folder01,folder02,folder03,folder04
TITLE ""
FILE "1Q_t_1809-1818.mp3" MP3
  TRACK 01 AUDIO
    TITLE "3:cjc004_6334"
    INDEX 01 00:00:00
  TRACK 02 AUDIO
    TITLE "0:"
    INDEX 01 00:01:19
  TRACK 03 AUDIO
    TITLE "4:cjc004_6335"
    INDEX 01 00:01:50
  TRACK 04 AUDIO
    TITLE "0:"
    INDEX 01 00:03:10
  TRACK 05 AUDIO
    TITLE "5:cjc004_6336"
    INDEX 01 00:03:35
  TRACK 06 AUDIO
    TITLE "0:"
    INDEX 01 00:07:70
  TRACK 07 AUDIO
    TITLE "3:cjc004_6337"
    INDEX 01 00:08:48
  TRACK 08 AUDIO
    TITLE "0:"
    INDEX 01 00:09:73
  TRACK 09 AUDIO
    TITLE "4:cjc004_6338"
    INDEX 01 00:10:25
  TRACK 10 AUDIO
    TITLE "0:"
    INDEX 01 00:11:50
  TRACK 11 AUDIO
    TITLE "5:cjc004_6339"
    INDEX 01 00:12:01
  TRACK 12 AUDIO
    TITLE "0:"
    INDEX 01 00:16:00
  TRACK 13 AUDIO
    TITLE "3:cjc004_6340"
    INDEX 01 00:16:59
  TRACK 14 AUDIO
    TITLE "0:"
    INDEX 01 00:17:72
  TRACK 15 AUDIO
    TITLE "4:cjc004_6341"
    INDEX 01 00:18:31
  TRACK 16 AUDIO
    TITLE "0:"
    INDEX 01 00:19:42
  TRACK 17 AUDIO
    TITLE "5:cjc004_6342"
    INDEX 01 00:19:67
  TRACK 18 AUDIO
    TITLE "0:"
    INDEX 01 00:23:48
  TRACK 19 AUDIO
    TITLE "3:cjc004_6343"
    INDEX 01 00:24:33
  TRACK 20 AUDIO
    TITLE "0:"
    INDEX 01 00:26:07
  TRACK 21 AUDIO
    TITLE "4:cjc004_6344"
    INDEX 01 00:26:34
  TRACK 22 AUDIO
    TITLE "0:"
    INDEX 01 00:27:61
  TRACK 23 AUDIO
    TITLE "5:cjc004_6345"
    INDEX 01 00:28:15
  TRACK 24 AUDIO
    TITLE "0:"
    INDEX 01 00:33:03
  TRACK 25 AUDIO
    TITLE "3:cjc004_6346"
    INDEX 01 00:33:62
  TRACK 26 AUDIO
    TITLE "0:"
    INDEX 01 00:35:06
  TRACK 27 AUDIO
    TITLE "4:cjc004_6347"
    INDEX 01 00:35:33
  TRACK 28 AUDIO
    TITLE "0:"
    INDEX 01 00:36:33
  TRACK 29 AUDIO
    TITLE "5:cjc004_6348"
    INDEX 01 00:36:62
  TRACK 30 AUDIO
    TITLE "0:"
    INDEX 01 00:40:42
  TRACK 31 AUDIO
    TITLE "3:cjc004_6349"
    INDEX 01 00:41:28
  TRACK 32 AUDIO
    TITLE "0:"
    INDEX 01 00:42:39
  TRACK 33 AUDIO
    TITLE "4:cjc004_6350"
    INDEX 01 00:42:74
  TRACK 34 AUDIO
    TITLE "0:"
    INDEX 01 00:44:16
  TRACK 35 AUDIO
    TITLE "5:cjc004_6351"
    INDEX 01 00:44:42
  TRACK 36 AUDIO
    TITLE "0:"
    INDEX 01 00:48:22
  TRACK 37 AUDIO
    TITLE "3:cjc004_6352"
    INDEX 01 00:49:04
  TRACK 38 AUDIO
    TITLE "0:"
    INDEX 01 00:50:31
  TRACK 39 AUDIO
    TITLE "4:cjc004_6353"
    INDEX 01 00:50:60
  TRACK 40 AUDIO
    TITLE "0:"
    INDEX 01 00:52:36
  TRACK 41 AUDIO
    TITLE "5:cjc004_6354"
    INDEX 01 00:52:61
  TRACK 42 AUDIO
    TITLE "0:"
    INDEX 01 00:58:03
  TRACK 43 AUDIO
    TITLE "3:cjc004_6355"
    INDEX 01 00:58:60
  TRACK 44 AUDIO
    TITLE "0:"
    INDEX 01 00:59:63
  TRACK 45 AUDIO
    TITLE "4:cjc004_6356"
    INDEX 01 01:00:23
  TRACK 46 AUDIO
    TITLE "0:"
    INDEX 01 01:01:21
  TRACK 47 AUDIO
    TITLE "5:cjc004_6357"
    INDEX 01 01:01:44
  TRACK 48 AUDIO
    TITLE "0:"
    INDEX 01 01:06:08
  TRACK 49 AUDIO
    TITLE "3:cjc004_6358"
    INDEX 01 01:06:57
  TRACK 50 AUDIO
    TITLE "0:"
    INDEX 01 01:08:07
  TRACK 51 AUDIO
    TITLE "4:cjc004_6359"
    INDEX 01 01:08:31
  TRACK 52 AUDIO
    TITLE "0:"
    INDEX 01 01:09:40
  TRACK 53 AUDIO
    TITLE "5:cjc004_6360"
    INDEX 01 01:09:65
  TRACK 54 AUDIO
    TITLE "0:"
    INDEX 01 01:14:06
  TRACK 55 AUDIO
    TITLE "3:cjc004_6361"
    INDEX 01 01:14:61
  TRACK 56 AUDIO
    TITLE "0:"
    INDEX 01 01:15:70
  TRACK 57 AUDIO
    TITLE "4:cjc004_6362"
    INDEX 01 01:16:24
  TRACK 58 AUDIO
    TITLE "0:"
    INDEX 01 01:18:15
  TRACK 59 AUDIO
    TITLE "5:cjc004_6363"
    INDEX 01 01:18:41
  TRACK 60 AUDIO
    TITLE "0:"
    INDEX 01 01:23:54
